<?xml version="1.0" encoding="UTF-8" standalone="no"?>
<!DOCTYPE svg PUBLIC "-//W3C//DTD SVG 1.1//EN"
 "http://www.w3.org/Graphics/SVG/1.1/DTD/svg11.dtd">
<!-- Generated by graphviz version 2.40.1 (20161225.0304)
 -->
<!-- Title: PaperGraph Pages: 1 -->
<svg width="2609pt" height="1775pt"
 viewBox="0.00 0.00 2609.00 1775.00" xmlns="http://www.w3.org/2000/svg" xmlns:xlink="http://www.w3.org/1999/xlink">
<g id="graph0" class="graph" transform="scale(1 1) rotate(0) translate(4 1771)">
<title>PaperGraph</title>
<polygon fill="#ffffff" fill-opacity="0.003922" stroke="transparent" points="-4,4 -4,-1771 2605,-1771 2605,4 -4,4"/>
<g id="clust1" class="cluster">
<title>cluster_thermal</title>
<polygon fill="#ffffff" fill-opacity="0.003922" stroke="#efffb2" points="-.4554,-769.3313 -.4554,-944.3313 709.5446,-944.3313 709.5446,-769.3313 -.4554,-769.3313"/>
<text text-anchor="middle" x="354.5446" y="-929.1313" font-family="Times,serif" font-size="14.00" fill="#efffb2">Thermal Transport</text>
</g>
<g id="clust2" class="cluster">
<title>cluster_md</title>
<polygon fill="#ffffff" fill-opacity="0.003922" stroke="#c1ffb2" points="886.1516,-505.5551 886.1516,-898.5551 1994.1516,-898.5551 1994.1516,-505.5551 886.1516,-505.5551"/>
<text text-anchor="middle" x="1440.1516" y="-883.3551" font-family="Times,serif" font-size="14.00" fill="#c1ffb2">Molecular Dynamics</text>
</g>
<g id="clust3" class="cluster">
<title>cluster_dft</title>
<polygon fill="#ffffff" fill-opacity="0.003922" stroke="#ffe0b2" points="1431.2381,-159.1409 1431.2381,-262.1409 2357.2381,-262.1409 2357.2381,-159.1409 1431.2381,-159.1409"/>
<text text-anchor="middle" x="1894.2381" y="-246.9409" font-family="Times,serif" font-size="14.00" fill="#ffe0b2">ab&#45;initio DFT</text>
</g>
<g id="clust4" class="cluster">
<title>cluster_cs</title>
<polygon fill="#ffffff" fill-opacity="0.003922" stroke="#b2ffff" points="1961.2381,-1484.1409 1961.2381,-1767.1409 2601.2381,-1767.1409 2601.2381,-1484.1409 1961.2381,-1484.1409"/>
<text text-anchor="middle" x="2281.2381" y="-1751.9409" font-family="Times,serif" font-size="14.00" fill="#b2ffff">Computer Science</text>
</g>
<!-- 10.1103/physrevlett.122.255901 -->
<g id="node1" class="node">
<title>10.1103/physrevlett.122.255901</title>
<polygon fill="#efffb2" stroke="#efffb2" points="510.6152,-913.8031 7.6152,-913.8031 7.6152,-849.8031 510.6152,-849.8031 510.6152,-913.8031"/>
<text text-anchor="start" x="15.6152" y="-899.6031" font-family="Times,serif" font-size="14.00" fill="#000000">(2019) Theory and Numerical Simulation of Heat Transport in Multicomponent Systems</text>
<text text-anchor="start" x="29.6152" y="-885.6031" font-family="Times,serif" font-weight="bold" font-size="14.00" fill="#000000">Riccardo Bertossa and Federico Grasselli and Loris Ercole and Stefano Baroni</text>
<text text-anchor="start" x="193.6152" y="-871.6031" font-family="Times,serif" font-style="italic" font-size="14.00" fill="#000000">Physical Review Letters</text>
<text text-anchor="start" x="128.6152" y="-857.6031" font-family="Times,serif" text-decoration="underline" font-size="14.00" fill="#000000">https://doi.org/10.1103/physrevlett.122.255901</text>
<text text-anchor="start" x="385.6152" y="-857.6031" font-family="Times,serif" font-size="14.00" fill="#000000"> </text>
</g>
<!-- 10.1038/s41598&#45;017&#45;15843&#45;2 -->
<g id="node2" class="node">
<title>10.1038/s41598&#45;017&#45;15843&#45;2</title>
<polygon fill="#efffb2" stroke="#efffb2" points="701.4258,-841.7959 149.4258,-841.7959 149.4258,-777.7959 701.4258,-777.7959 701.4258,-841.7959"/>
<text text-anchor="start" x="157.4258" y="-827.5959" font-family="Times,serif" font-size="14.00" fill="#000000">(2017) Accurate Thermal Conductivities From Optimally Short Molecular Dynamics Simulations</text>
<text text-anchor="start" x="266.9258" y="-813.5959" font-family="Times,serif" font-weight="bold" font-size="14.00" fill="#000000">Loris Ercole and Aris Marcolongo and Stefano Baroni</text>
<text text-anchor="start" x="376.9258" y="-799.5959" font-family="Times,serif" font-style="italic" font-size="14.00" fill="#000000">Scientific Reports</text>
<text text-anchor="start" x="302.4258" y="-785.5959" font-family="Times,serif" text-decoration="underline" font-size="14.00" fill="#000000">https://doi.org/10.1038/s41598&#45;017&#45;15843&#45;2</text>
<text text-anchor="start" x="544.4258" y="-785.5959" font-family="Times,serif" font-size="14.00" fill="#000000"> </text>
</g>
<!-- 10.1103/physrevlett.122.255901&#45;&gt;10.1038/s41598&#45;017&#45;15843&#45;2 -->
<g id="edge12" class="edge">
<title>10.1103/physrevlett.122.255901&#45;&gt;10.1038/s41598&#45;017&#45;15843&#45;2</title>
<g id="a_edge12"><a xlink:title="PhysRevLett.122.255901Cc17R1">
<path fill="none" stroke="#00ffff" d="M333.0299,-849.8003C335.9714,-848.5268 338.9285,-847.2464 341.8862,-845.9658"/>
<polygon fill="#00ffff" stroke="#00ffff" points="351.316,-841.883 343.9272,-849.9859 346.7276,-843.8697 342.1392,-845.8564 342.1392,-845.8564 342.1392,-845.8564 346.7276,-843.8697 340.3512,-841.7268 351.316,-841.883 351.316,-841.883"/>
</a>
</g>
</g>
<!-- 10.1063/1.452362 -->
<g id="node4" class="node">
<title>10.1063/1.452362</title>
<polygon fill="#c1ffb2" stroke="#c1ffb2" points="1706.378,-693.8091 894.378,-693.8091 894.378,-629.8091 1706.378,-629.8091 1706.378,-693.8091"/>
<text text-anchor="start" x="902.378" y="-679.6091" font-family="Times,serif" font-size="14.00" fill="#000000">(1987) Fluctuation‐based Computer Calculation of Partial Molar Properties. I. Molecular Dynamics Simulation of Constant Volume Fluctuations</text>
<text text-anchor="start" x="1237.878" y="-665.6091" font-family="Times,serif" font-weight="bold" font-size="14.00" fill="#000000">Pablo G. Debenedetti</text>
<text text-anchor="start" x="1209.878" y="-651.6091" font-family="Times,serif" font-style="italic" font-size="14.00" fill="#000000">The Journal of Chemical Physics</text>
<text text-anchor="start" x="1208.378" y="-637.6091" font-family="Times,serif" text-decoration="underline" font-size="14.00" fill="#000000">https://doi.org/10.1063/1.452362</text>
<text text-anchor="start" x="1388.378" y="-637.6091" font-family="Times,serif" font-size="14.00" fill="#000000"> </text>
</g>
<!-- 10.1103/physrevlett.122.255901&#45;&gt;10.1063/1.452362 -->
<g id="edge11" class="edge">
<title>10.1103/physrevlett.122.255901&#45;&gt;10.1063/1.452362</title>
<g id="a_edge11"><a xlink:title="PhysRevLett.122.255901Cc10R1">
<path fill="none" stroke="#00ffff" d="M510.719,-874.4924C574.5828,-868.9674 642.6454,-859.8542 704.6258,-844.9959 871.786,-804.9231 896.9936,-744.6102 1062.6225,-698.6163 1065.3124,-697.8694 1068.0239,-697.1363 1070.754,-696.417"/>
<polygon fill="#00ffff" stroke="#00ffff" points="1080.7151,-693.872 1072.1403,-700.7074 1075.8707,-695.1097 1071.0264,-696.3475 1071.0264,-696.3475 1071.0264,-696.3475 1075.8707,-695.1097 1069.9124,-691.9875 1080.7151,-693.872 1080.7151,-693.872"/>
</a>
</g>
</g>
<!-- 10.1038/nphys3509 -->
<g id="node13" class="node">
<title>10.1038/nphys3509</title>
<polygon fill="#c1b2ff" stroke="#c1b2ff" points="1312.8931,-970.5788 857.8931,-970.5788 857.8931,-906.5788 1312.8931,-906.5788 1312.8931,-970.5788"/>
<text text-anchor="start" x="865.8931" y="-956.3788" font-family="Times,serif" font-size="14.00" fill="#000000">(2015) Microscopic Theory and Quantum Simulation of Atomic Heat Transport</text>
<text text-anchor="start" x="925.8931" y="-942.3788" font-family="Times,serif" font-weight="bold" font-size="14.00" fill="#000000">Aris Marcolongo and Paolo Umari and Stefano Baroni</text>
<text text-anchor="start" x="1043.8931" y="-928.3788" font-family="Times,serif" font-style="italic" font-size="14.00" fill="#000000">Nature Physics</text>
<text text-anchor="start" x="989.3931" y="-914.3788" font-family="Times,serif" text-decoration="underline" font-size="14.00" fill="#000000">https://doi.org/10.1038/nphys3509</text>
<text text-anchor="start" x="1177.3931" y="-914.3788" font-family="Times,serif" font-size="14.00" fill="#000000"> </text>
</g>
<!-- 10.1103/physrevlett.122.255901&#45;&gt;10.1038/nphys3509 -->
<g id="edge10" class="edge">
<title>10.1103/physrevlett.122.255901&#45;&gt;10.1038/nphys3509</title>
<g id="a_edge10"><a xlink:title="PhysRevLett.122.255901Cc8R1">
<path fill="none" stroke="#00ffff" d="M510.6721,-899.0882C617.7163,-906.4435 741.9397,-914.9792 847.4514,-922.2292"/>
<polygon fill="#00ffff" stroke="#00ffff" points="857.6026,-922.9267 847.3176,-926.7305 852.6143,-922.5839 847.6261,-922.2411 847.6261,-922.2411 847.6261,-922.2411 852.6143,-922.5839 847.9346,-917.7517 857.6026,-922.9267 857.6026,-922.9267"/>
</a>
</g>
</g>
<!-- 10.1038/s41598&#45;017&#45;15843&#45;2&#45;&gt;10.1038/nphys3509 -->
<g id="edge13" class="edge">
<title>10.1038/s41598&#45;017&#45;15843&#45;2&#45;&gt;10.1038/nphys3509</title>
<g id="a_edge13"><a xlink:title="15843_CR13">
<path fill="none" stroke="#00ffff" d="M589.8362,-841.8781C687.7458,-860.9838 811.9047,-885.2115 911.451,-904.6365"/>
<polygon fill="#00ffff" stroke="#00ffff" points="921.3118,-906.5607 910.635,-909.0621 916.4044,-905.6031 911.4969,-904.6454 911.4969,-904.6454 911.4969,-904.6454 916.4044,-905.6031 912.3588,-900.2287 921.3118,-906.5607 921.3118,-906.5607"/>
</a>
</g>
</g>
<!-- 10.1063/1.473271 -->
<g id="node3" class="node">
<title>10.1063/1.473271</title>
<polygon fill="#c1ffb2" stroke="#c1ffb2" points="1661.8225,-765.8163 1065.8225,-765.8163 1065.8225,-701.8163 1661.8225,-701.8163 1661.8225,-765.8163"/>
<text text-anchor="start" x="1073.8225" y="-751.6163" font-family="Times,serif" font-size="14.00" fill="#000000">(1997) A Simple Nonequilibrium Molecular Dynamics Method for Calculating the Thermal Conductivity</text>
<text text-anchor="start" x="1288.3225" y="-737.6163" font-family="Times,serif" font-weight="bold" font-size="14.00" fill="#000000">Florian M{\&quot;u}ller&#45;Plathe</text>
<text text-anchor="start" x="1273.3225" y="-723.6163" font-family="Times,serif" font-style="italic" font-size="14.00" fill="#000000">The Journal of Chemical Physics</text>
<text text-anchor="start" x="1271.8225" y="-709.6163" font-family="Times,serif" text-decoration="underline" font-size="14.00" fill="#000000">https://doi.org/10.1063/1.473271</text>
<text text-anchor="start" x="1451.8225" y="-709.6163" font-family="Times,serif" font-size="14.00" fill="#000000"> </text>
</g>
<!-- 10.1038/nmat2508 -->
<g id="node5" class="node">
<title>10.1038/nmat2508</title>
<polygon fill="#c1ffb2" stroke="#c1ffb2" points="1756.3897,-577.196 1300.3897,-577.196 1300.3897,-513.196 1756.3897,-513.196 1756.3897,-577.196"/>
<text text-anchor="start" x="1323.8897" y="-562.996" font-family="Times,serif" font-size="14.00" fill="#000000">(2009) Surface&#45;Induced Crystallization in Supercooled Tetrahedral Liquids</text>
<text text-anchor="start" x="1308.3897" y="-548.996" font-family="Times,serif" font-weight="bold" font-size="14.00" fill="#000000">Tianshu Li and Davide Donadio and Luca M. Ghiringhelli and Giulia Galli</text>
<text text-anchor="start" x="1480.8897" y="-534.996" font-family="Times,serif" font-style="italic" font-size="14.00" fill="#000000">Nature Materials</text>
<text text-anchor="start" x="1434.3897" y="-520.996" font-family="Times,serif" text-decoration="underline" font-size="14.00" fill="#000000">https://doi.org/10.1038/nmat2508</text>
<text text-anchor="start" x="1618.3897" y="-520.996" font-family="Times,serif" font-size="14.00" fill="#000000"> </text>
</g>
<!-- 10.1063/1.3268346 -->
<g id="node6" class="node">
<title>10.1063/1.3268346</title>
<polygon fill="#c1ffb2" stroke="#c1ffb2" points="1986.3897,-867.196 1416.3897,-867.196 1416.3897,-803.196 1986.3897,-803.196 1986.3897,-867.196"/>
<text text-anchor="start" x="1424.3897" y="-852.996" font-family="Times,serif" font-size="14.00" fill="#000000">(2009) Nucleation of Tetrahedral Solids: a Molecular Dynamics Study of Supercooled Liquid Silicon</text>
<text text-anchor="start" x="1558.3897" y="-838.996" font-family="Times,serif" font-weight="bold" font-size="14.00" fill="#000000">Tianshu Li and Davide Donadio and Giulia Galli</text>
<text text-anchor="start" x="1610.8897" y="-824.996" font-family="Times,serif" font-style="italic" font-size="14.00" fill="#000000">The Journal of Chemical Physics</text>
<text text-anchor="start" x="1605.8897" y="-810.996" font-family="Times,serif" text-decoration="underline" font-size="14.00" fill="#000000">https://doi.org/10.1063/1.3268346</text>
<text text-anchor="start" x="1792.8897" y="-810.996" font-family="Times,serif" font-size="14.00" fill="#000000"> </text>
</g>
<!-- 10.1063/1.3268346&#45;&gt;10.1038/nmat2508 -->
<g id="edge15" class="edge">
<title>10.1063/1.3268346&#45;&gt;10.1038/nmat2508</title>
<g id="a_edge15"><a xlink:title="c31">
<path fill="none" stroke="#00ffff" d="M1713.321,-802.8798C1727.2664,-759.1159 1744.3243,-680.3143 1709.578,-626.6091 1697.4755,-607.903 1679.942,-593.4534 1660.4894,-582.3033"/>
<polygon fill="#00ffff" stroke="#00ffff" points="1651.4293,-577.409 1662.3664,-578.2027 1655.8284,-579.7854 1660.2276,-582.1619 1660.2276,-582.1619 1660.2276,-582.1619 1655.8284,-579.7854 1658.0888,-586.1212 1651.4293,-577.409 1651.4293,-577.409"/>
</a>
</g>
</g>
<!-- 10.1088/0953&#45;8984/14/11/302 -->
<g id="node7" class="node">
<title>10.1088/0953&#45;8984/14/11/302</title>
<polygon fill="#ffe0b2" stroke="#ffe0b2" points="2349.4762,-230.7818 1439.4762,-230.7818 1439.4762,-166.7818 2349.4762,-166.7818 2349.4762,-230.7818"/>
<text text-anchor="start" x="1703.4762" y="-216.5818" font-family="Times,serif" font-size="14.00" fill="#000000">(2002) The Siesta Method For ab&#45;initio order&#45;N Materials Simulation</text>
<text text-anchor="start" x="1447.4762" y="-202.5818" font-family="Times,serif" font-weight="bold" font-size="14.00" fill="#000000">Jos{\&#39;e} M Soler and Emilio Artacho and Julian D Gale and Alberto Garc{\&#39;i}a and Javier Junquera and Pablo Ordej{\&#39;o}n and Daniel S{\&#39;a}nchez&#45;Portal</text>
<text text-anchor="start" x="1788.9762" y="-188.5818" font-family="Times,serif" font-style="italic" font-size="14.00" fill="#000000">Journal of Physics: Condensed Matter</text>
<text text-anchor="start" x="1769.4762" y="-174.5818" font-family="Times,serif" text-decoration="underline" font-size="14.00" fill="#000000">https://doi.org/10.1088/0953&#45;8984/14/11/302</text>
<text text-anchor="start" x="2015.4762" y="-174.5818" font-family="Times,serif" font-size="14.00" fill="#000000"> </text>
</g>
<!-- 10.1007/978&#45;3&#45;642&#45;20712&#45;9_1 -->
<g id="node8" class="node">
<title>10.1007/978&#45;3&#45;642&#45;20712&#45;9_1</title>
<polygon fill="#b2ffff" stroke="#b2ffff" points="2593.4762,-1735.7818 2293.4762,-1735.7818 2293.4762,-1671.7818 2593.4762,-1671.7818 2593.4762,-1735.7818"/>
<text text-anchor="start" x="2301.4762" y="-1721.5818" font-family="Times,serif" font-size="14.00" fill="#000000">(2011) The Equivalence of Sampling and Searching</text>
<text text-anchor="start" x="2398.4762" y="-1707.5818" font-family="Times,serif" font-weight="bold" font-size="14.00" fill="#000000">Scott Aaronson</text>
<text text-anchor="start" x="2317.4762" y="-1679.5818" font-family="Times,serif" text-decoration="underline" font-size="14.00" fill="#000000">https://doi.org/10.1007/978&#45;3&#45;642&#45;20712&#45;9_1</text>
<text text-anchor="start" x="2565.4762" y="-1679.5818" font-family="Times,serif" font-size="14.00" fill="#000000"> </text>
</g>
<!-- 10.1109/tvcg.2016.2599030 -->
<g id="node9" class="node">
<title>10.1109/tvcg.2016.2599030</title>
<polygon fill="#b2ffff" stroke="#b2ffff" points="2507.9762,-1645.7818 1968.9762,-1645.7818 1968.9762,-1581.7818 2507.9762,-1581.7818 2507.9762,-1645.7818"/>
<text text-anchor="start" x="2090.9762" y="-1631.5818" font-family="Times,serif" font-size="14.00" fill="#000000">(2017) Vega&#45;Lite: a Grammar of Interactive Graphics</text>
<text text-anchor="start" x="1976.9762" y="-1617.5818" font-family="Times,serif" font-weight="bold" font-size="14.00" fill="#000000">Arvind Satyanarayan and Dominik Moritz and Kanit Wongsuphasawat and Jeffrey Heer</text>
<text text-anchor="start" x="2072.4762" y="-1603.5818" font-family="Times,serif" font-style="italic" font-size="14.00" fill="#000000">IEEE Transactions on Visualization and Computer Graphics</text>
<text text-anchor="start" x="2119.4762" y="-1589.5818" font-family="Times,serif" text-decoration="underline" font-size="14.00" fill="#000000">https://doi.org/10.1109/tvcg.2016.2599030</text>
<text text-anchor="start" x="2353.4762" y="-1589.5818" font-family="Times,serif" font-size="14.00" fill="#000000"> </text>
</g>
<!-- 10.1145/359168.359176 -->
<g id="node10" class="node">
<title>10.1145/359168.359176</title>
<polygon fill="#b2ffff" stroke="#b2ffff" points="2473.4762,-1555.7818 2239.4762,-1555.7818 2239.4762,-1491.7818 2473.4762,-1491.7818 2473.4762,-1555.7818"/>
<text text-anchor="start" x="2272.9762" y="-1541.5818" font-family="Times,serif" font-size="14.00" fill="#000000">(1979) How To Share a Secret</text>
<text text-anchor="start" x="2321.9762" y="-1527.5818" font-family="Times,serif" font-weight="bold" font-size="14.00" fill="#000000">Adi Shamir</text>
<text text-anchor="start" x="2276.4762" y="-1513.5818" font-family="Times,serif" font-style="italic" font-size="14.00" fill="#000000">Communications of the ACM</text>
<text text-anchor="start" x="2247.4762" y="-1499.5818" font-family="Times,serif" text-decoration="underline" font-size="14.00" fill="#000000">https://doi.org/10.1145/359168.359176</text>
<text text-anchor="start" x="2461.4762" y="-1499.5818" font-family="Times,serif" font-size="14.00" fill="#000000"> </text>
</g>
<!-- 10.1063/1.4815945 -->
<g id="node11" class="node">
<title>10.1063/1.4815945</title>
<polygon fill="#c1b2ff" stroke="#c1b2ff" points="1368.9583,-116.5626 891.9583,-116.5626 891.9583,-52.5626 1368.9583,-52.5626 1368.9583,-116.5626"/>
<text text-anchor="start" x="899.9583" y="-102.3626" font-family="Times,serif" font-size="14.00" fill="#000000">(2013) Thermal Conductivity From Approach&#45;To&#45;Equilibrium Molecular Dynamics</text>
<text text-anchor="start" x="955.9583" y="-88.3626" font-family="Times,serif" font-weight="bold" font-size="14.00" fill="#000000">E. Lampin and P. L. Palla and P.&#45;A. Francioso and F. Cleri</text>
<text text-anchor="start" x="1056.4583" y="-74.3626" font-family="Times,serif" font-style="italic" font-size="14.00" fill="#000000">Journal of Applied Physics</text>
<text text-anchor="start" x="1034.9583" y="-60.3626" font-family="Times,serif" text-decoration="underline" font-size="14.00" fill="#000000">https://doi.org/10.1063/1.4815945</text>
<text text-anchor="start" x="1221.9583" y="-60.3626" font-family="Times,serif" font-size="14.00" fill="#000000"> </text>
</g>
<!-- 10.1140/epjb/e2014&#45;50119&#45;0 -->
<g id="node12" class="node">
<title>10.1140/epjb/e2014&#45;50119&#45;0</title>
<polygon fill="#c1b2ff" stroke="#c1b2ff" points="1275.7129,-1456.9152 679.7129,-1456.9152 679.7129,-1392.9152 1275.7129,-1392.9152 1275.7129,-1456.9152"/>
<text text-anchor="start" x="687.7129" y="-1442.7152" font-family="Times,serif" font-size="14.00" fill="#000000">(2014) Calculating Thermal Conductivity in a Transient Conduction Regime: Theory and Implementation</text>
<text text-anchor="start" x="728.2129" y="-1428.7152" font-family="Times,serif" font-weight="bold" font-size="14.00" fill="#000000">Claudio Melis and Riccardo Dettori and Simon Vandermeulen and Luciano Colombo</text>
<text text-anchor="start" x="884.7129" y="-1414.7152" font-family="Times,serif" font-style="italic" font-size="14.00" fill="#000000">The European Physical Journal B</text>
<text text-anchor="start" x="856.7129" y="-1400.7152" font-family="Times,serif" text-decoration="underline" font-size="14.00" fill="#000000">https://doi.org/10.1140/epjb/e2014&#45;50119&#45;0</text>
<text text-anchor="start" x="1094.7129" y="-1400.7152" font-family="Times,serif" font-size="14.00" fill="#000000"> </text>
</g>
<!-- 10.1140/epjb/e2014&#45;50119&#45;0&#45;&gt;10.1063/1.473271 -->
<g id="edge2" class="edge">
<title>10.1140/epjb/e2014&#45;50119&#45;0&#45;&gt;10.1063/1.473271</title>
<g id="a_edge2"><a xlink:title="1268_CR16">
<path fill="none" stroke="#00ffff" d="M1010.2969,-1392.6678C1078.6628,-1322.9847 1237.2573,-1150.3418 1316.0931,-973.7788 1345.276,-908.4197 1356.7205,-825.1306 1361.1344,-775.8367"/>
<polygon fill="#00ffff" stroke="#00ffff" points="1361.9734,-765.8527 1365.6201,-776.1944 1361.5547,-770.8351 1361.1359,-775.8175 1361.1359,-775.8175 1361.1359,-775.8175 1361.5547,-770.8351 1356.6517,-775.4407 1361.9734,-765.8527 1361.9734,-765.8527"/>
</a>
</g>
</g>
<!-- 10.1140/epjb/e2014&#45;50119&#45;0&#45;&gt;10.1063/1.4815945 -->
<g id="edge1" class="edge">
<title>10.1140/epjb/e2014&#45;50119&#45;0&#45;&gt;10.1063/1.4815945</title>
<g id="a_edge1"><a xlink:title="1268_CR12">
<path fill="none" stroke="#00ffff" d="M983.6653,-1392.6805C993.0418,-1334.0406 1006.6101,-1206.9696 969.4381,-1109.4409 941.3134,-1035.6495 881.8479,-1047.9326 854.6931,-973.7788 828.5722,-902.4485 840.3344,-807.9271 891.178,-626.6091 946.1009,-430.7436 1058.9515,-214.0351 1107.4624,-125.5588"/>
<polygon fill="#00ffff" stroke="#00ffff" points="1112.3656,-116.6539 1111.4842,-127.5843 1109.9539,-121.0338 1107.5422,-125.4138 1107.5422,-125.4138 1107.5422,-125.4138 1109.9539,-121.0338 1103.6003,-123.2433 1112.3656,-116.6539 1112.3656,-116.6539"/>
</a>
</g>
</g>
<!-- 10.1038/nphys3509&#45;&gt;10.1063/1.473271 -->
<g id="edge3" class="edge">
<title>10.1038/nphys3509&#45;&gt;10.1063/1.473271</title>
<g id="a_edge3"><a xlink:title="BFnphys3509_CR6">
<path fill="none" stroke="#00ffff" d="M1129.204,-906.3594C1178.7741,-869.9046 1259.4383,-810.5825 1312.0698,-771.8763"/>
<polygon fill="#00ffff" stroke="#00ffff" points="1320.2671,-765.8478 1314.8771,-775.3976 1316.2391,-768.8101 1312.2111,-771.7724 1312.2111,-771.7724 1312.2111,-771.7724 1316.2391,-768.8101 1309.545,-768.1472 1320.2671,-765.8478 1320.2671,-765.8478"/>
</a>
</g>
</g>
<!-- 10.1016/j.jssc.2012.05.010 -->
<g id="node14" class="node">
<title>10.1016/j.jssc.2012.05.010</title>
<polygon fill="#c1b2ff" stroke="#c1b2ff" points="906.7381,-1335.6409 529.7381,-1335.6409 529.7381,-1271.6409 906.7381,-1271.6409 906.7381,-1335.6409"/>
<text text-anchor="start" x="537.7381" y="-1321.4409" font-family="Times,serif" font-size="14.00" fill="#000000">(2012) A Beginner&#39;s Guide To the Modern Theory of Polarization</text>
<text text-anchor="start" x="666.7381" y="-1307.4409" font-family="Times,serif" font-weight="bold" font-size="14.00" fill="#000000">Nicola A. Spaldin</text>
<text text-anchor="start" x="629.2381" y="-1293.4409" font-family="Times,serif" font-style="italic" font-size="14.00" fill="#000000">Journal of Solid State Chemistry</text>
<text text-anchor="start" x="601.7381" y="-1279.4409" font-family="Times,serif" text-decoration="underline" font-size="14.00" fill="#000000">https://doi.org/10.1016/j.jssc.2012.05.010</text>
<text text-anchor="start" x="830.7381" y="-1279.4409" font-family="Times,serif" font-size="14.00" fill="#000000"> </text>
</g>
<!-- 10.1103/revmodphys.33.92 -->
<g id="node15" class="node">
<title>10.1103/revmodphys.33.92</title>
<polygon fill="#c1b2ff" stroke="#c1b2ff" points="1896.2381,-1547.6409 1484.2381,-1547.6409 1484.2381,-1483.6409 1896.2381,-1483.6409 1896.2381,-1547.6409"/>
<text text-anchor="start" x="1492.2381" y="-1533.4409" font-family="Times,serif" font-size="14.00" fill="#000000">(1961) Theory of Thermal Conductivity of Solids At Low Temperatures</text>
<text text-anchor="start" x="1640.2381" y="-1519.4409" font-family="Times,serif" font-weight="bold" font-size="14.00" fill="#000000">Peter Carruthers</text>
<text text-anchor="start" x="1614.7381" y="-1505.4409" font-family="Times,serif" font-style="italic" font-size="14.00" fill="#000000">Reviews of Modern Physics</text>
<text text-anchor="start" x="1572.7381" y="-1491.4409" font-family="Times,serif" text-decoration="underline" font-size="14.00" fill="#000000">https://doi.org/10.1103/revmodphys.33.92</text>
<text text-anchor="start" x="1803.7381" y="-1491.4409" font-family="Times,serif" font-size="14.00" fill="#000000"> </text>
</g>
<!-- 10.1016/0010&#45;4655(96)00016&#45;1 -->
<g id="node16" class="node">
<title>10.1016/0010&#45;4655(96)00016&#45;1</title>
<polygon fill="#c1b2ff" stroke="#c1b2ff" points="1579.2381,-1335.6409 1219.2381,-1335.6409 1219.2381,-1271.6409 1579.2381,-1271.6409 1579.2381,-1335.6409"/>
<text text-anchor="start" x="1227.2381" y="-1321.4409" font-family="Times,serif" font-size="14.00" fill="#000000">(1996) Ewald Summation Techniques in Perspective: a Survey</text>
<text text-anchor="start" x="1270.2381" y="-1307.4409" font-family="Times,serif" font-weight="bold" font-size="14.00" fill="#000000">Abdulnour Y. Toukmaji and John A. Board</text>
<text text-anchor="start" x="1301.7381" y="-1293.4409" font-family="Times,serif" font-style="italic" font-size="14.00" fill="#000000">Computer Physics Communications</text>
<text text-anchor="start" x="1269.7381" y="-1279.4409" font-family="Times,serif" text-decoration="underline" font-size="14.00" fill="#000000">https://doi.org/10.1016/0010&#45;4655(96)00016&#45;1</text>
<text text-anchor="start" x="1524.7381" y="-1279.4409" font-family="Times,serif" font-size="14.00" fill="#000000"> </text>
</g>
<!-- 10.1016/j.cpc.2018.02.011 -->
<g id="node17" class="node">
<title>10.1016/j.cpc.2018.02.011</title>
<polygon fill="#c1b2ff" stroke="#c1b2ff" points="1851.2381,-434.6409 1219.2381,-434.6409 1219.2381,-370.6409 1851.2381,-370.6409 1851.2381,-434.6409"/>
<text text-anchor="start" x="1227.2381" y="-420.4409" font-family="Times,serif" font-size="14.00" fill="#000000">(2018) The PSML Format and Library for Norm&#45;Conserving Pseudopotential Data Curation and Interoperability</text>
<text text-anchor="start" x="1282.2381" y="-406.4409" font-family="Times,serif" font-weight="bold" font-size="14.00" fill="#000000">Alberto Garc{\&#39;i}a and Matthieu J. Verstraete and Yann Pouillon and Javier Junquera</text>
<text text-anchor="start" x="1437.7381" y="-392.4409" font-family="Times,serif" font-style="italic" font-size="14.00" fill="#000000">Computer Physics Communications</text>
<text text-anchor="start" x="1419.7381" y="-378.4409" font-family="Times,serif" text-decoration="underline" font-size="14.00" fill="#000000">https://doi.org/10.1016/j.cpc.2018.02.011</text>
<text text-anchor="start" x="1646.7381" y="-378.4409" font-family="Times,serif" font-size="14.00" fill="#000000"> </text>
</g>
<!-- 10.1103/physrevb.41.7892 -->
<g id="node18" class="node">
<title>10.1103/physrevb.41.7892</title>
<polygon fill="#c1b2ff" stroke="#c1b2ff" points="2231.2381,-1070.6409 1749.2381,-1070.6409 1749.2381,-1006.6409 2231.2381,-1006.6409 2231.2381,-1070.6409"/>
<text text-anchor="start" x="1757.2381" y="-1056.4409" font-family="Times,serif" font-size="14.00" fill="#000000">(1990) Soft Self&#45;Consistent Pseudopotentials in a Generalized Eigenvalue Formalism</text>
<text text-anchor="start" x="1939.2381" y="-1042.4409" font-family="Times,serif" font-weight="bold" font-size="14.00" fill="#000000">David Vanderbilt</text>
<text text-anchor="start" x="1939.2381" y="-1028.4409" font-family="Times,serif" font-style="italic" font-size="14.00" fill="#000000">Physical Review B</text>
<text text-anchor="start" x="1875.2381" y="-1014.4409" font-family="Times,serif" text-decoration="underline" font-size="14.00" fill="#000000">https://doi.org/10.1103/physrevb.41.7892</text>
<text text-anchor="start" x="2101.2381" y="-1014.4409" font-family="Times,serif" font-size="14.00" fill="#000000"> </text>
</g>
<!-- 10.1007/978&#45;3&#45;319&#45;44680&#45;6_145 -->
<g id="node19" class="node">
<title>10.1007/978&#45;3&#45;319&#45;44680&#45;6_145</title>
<polygon fill="#c1b2ff" stroke="#c1b2ff" points="1932.2106,-1377.5844 1650.2106,-1377.5844 1650.2106,-1313.5844 1932.2106,-1313.5844 1932.2106,-1377.5844"/>
<text text-anchor="start" x="1689.2106" y="-1363.3844" font-family="Times,serif" font-size="14.00" fill="#000000">(2020) Thermal Transport: Overview</text>
<text text-anchor="start" x="1744.2106" y="-1349.3844" font-family="Times,serif" font-weight="bold" font-size="14.00" fill="#000000">Davide Donadio</text>
<text text-anchor="start" x="1658.2106" y="-1321.3844" font-family="Times,serif" text-decoration="underline" font-size="14.00" fill="#000000">https://doi.org/10.1007/978&#45;3&#45;319&#45;44680&#45;6_145</text>
<text text-anchor="start" x="1920.2106" y="-1321.3844" font-family="Times,serif" font-size="14.00" fill="#000000"> </text>
</g>
<!-- 10.1007/978&#45;3&#45;319&#45;44680&#45;6_145&#45;&gt;10.1063/1.473271 -->
<g id="edge5" class="edge">
<title>10.1007/978&#45;3&#45;319&#45;44680&#45;6_145&#45;&gt;10.1063/1.473271</title>
<g id="a_edge5"><a xlink:title="145_CR49">
<path fill="none" stroke="#00ffff" d="M1759.3524,-1313.4671C1688.4667,-1240.4907 1515.8804,-1054.232 1413.1897,-870.396 1396.4348,-840.4015 1383.5295,-803.6413 1375.1229,-775.8163"/>
<polygon fill="#00ffff" stroke="#00ffff" points="1372.2304,-765.9983 1379.373,-774.319 1373.6434,-770.7945 1375.0565,-775.5907 1375.0565,-775.5907 1375.0565,-775.5907 1373.6434,-770.7945 1370.7399,-776.8625 1372.2304,-765.9983 1372.2304,-765.9983"/>
</a>
</g>
</g>
<!-- 10.1007/978&#45;3&#45;319&#45;44680&#45;6_145&#45;&gt;10.1038/nphys3509 -->
<g id="edge4" class="edge">
<title>10.1007/978&#45;3&#45;319&#45;44680&#45;6_145&#45;&gt;10.1038/nphys3509</title>
<g id="a_edge4"><a xlink:title="145_CR46">
<path fill="none" stroke="#00ffff" d="M1735.5317,-1313.4775C1606.3695,-1238.9968 1286.9366,-1054.7977 1149.7172,-975.6709"/>
<polygon fill="#00ffff" stroke="#00ffff" points="1140.9462,-970.6132 1151.8571,-971.7103 1145.2777,-973.1109 1149.6091,-975.6086 1149.6091,-975.6086 1149.6091,-975.6086 1145.2777,-973.1109 1147.3612,-979.5069 1140.9462,-970.6132 1140.9462,-970.6132"/>
</a>
</g>
</g>
<!-- 10.1007/978&#45;3&#45;319&#45;50257&#45;1_12&#45;1 -->
<g id="node20" class="node">
<title>10.1007/978&#45;3&#45;319&#45;50257&#45;1_12&#45;1</title>
<polygon fill="#c1b2ff" stroke="#c1b2ff" points="926.9354,-240.5847 323.9354,-240.5847 323.9354,-176.5847 926.9354,-176.5847 926.9354,-240.5847"/>
<text text-anchor="start" x="429.9354" y="-226.3847" font-family="Times,serif" font-size="14.00" fill="#000000">(2018) Heat Transport in Insulators from Ab Initio Green&#45;Kubo Theory</text>
<text text-anchor="start" x="331.9354" y="-212.3847" font-family="Times,serif" font-weight="bold" font-size="14.00" fill="#000000">Stefano Baroni and Riccardo Bertossa and Loris Ercole and Federico Grasselli and Aris Marcolongo</text>
<text text-anchor="start" x="490.4354" y="-184.3847" font-family="Times,serif" text-decoration="underline" font-size="14.00" fill="#000000">https://doi.org/10.1007/978&#45;3&#45;319&#45;50257&#45;1_12&#45;1</text>
<text text-anchor="start" x="756.4354" y="-184.3847" font-family="Times,serif" font-size="14.00" fill="#000000"> </text>
</g>
<!-- 10.1007/978&#45;3&#45;319&#45;50257&#45;1_12&#45;1&#45;&gt;10.1038/s41598&#45;017&#45;15843&#45;2 -->
<g id="edge6" class="edge">
<title>10.1007/978&#45;3&#45;319&#45;50257&#45;1_12&#45;1&#45;&gt;10.1038/s41598&#45;017&#45;15843&#45;2</title>
<g id="a_edge6"><a xlink:title="12&#45;1_CR16">
<path fill="none" stroke="#00ffff" d="M614.682,-240.9084C580.9318,-342.3585 477.1122,-654.4311 439.3459,-767.9532"/>
<polygon fill="#00ffff" stroke="#00ffff" points="436.1107,-777.6781 434.9975,-766.7688 437.689,-772.9337 439.2674,-768.1894 439.2674,-768.1894 439.2674,-768.1894 437.689,-772.9337 443.5373,-769.6099 436.1107,-777.6781 436.1107,-777.6781"/>
</a>
</g>
</g>
<!-- 10.1007/978&#45;3&#45;319&#45;50257&#45;1_12&#45;1&#45;&gt;10.1063/1.473271 -->
<g id="edge9" class="edge">
<title>10.1007/978&#45;3&#45;319&#45;50257&#45;1_12&#45;1&#45;&gt;10.1063/1.473271</title>
<g id="a_edge9"><a xlink:title="12&#45;1_CR41">
<path fill="none" stroke="#00ffff" d="M640.6972,-240.7098C690.5268,-344.9764 847.7392,-668.8518 891.178,-697.0091 939.8172,-728.5374 997.465,-745.5043 1055.4838,-753.5355"/>
<polygon fill="#00ffff" stroke="#00ffff" points="1065.5552,-754.8407 1055.0597,-758.0181 1060.5966,-754.1981 1055.6381,-753.5554 1055.6381,-753.5554 1055.6381,-753.5554 1060.5966,-754.1981 1056.2165,-749.0928 1065.5552,-754.8407 1065.5552,-754.8407"/>
</a>
</g>
</g>
<!-- 10.1007/978&#45;3&#45;319&#45;50257&#45;1_12&#45;1&#45;&gt;10.1063/1.4815945 -->
<g id="edge7" class="edge">
<title>10.1007/978&#45;3&#45;319&#45;50257&#45;1_12&#45;1&#45;&gt;10.1063/1.4815945</title>
<g id="a_edge7"><a xlink:title="12&#45;1_CR35">
<path fill="none" stroke="#00ffff" d="M755.8196,-176.5653C827.7023,-158.9125 916.9775,-136.9886 990.3467,-118.9708"/>
<polygon fill="#00ffff" stroke="#00ffff" points="1000.1298,-116.5683 991.4916,-123.3234 995.2741,-117.7607 990.4184,-118.9532 990.4184,-118.9532 990.4184,-118.9532 995.2741,-117.7607 989.3452,-114.5831 1000.1298,-116.5683 1000.1298,-116.5683"/>
</a>
</g>
</g>
<!-- 10.1007/978&#45;3&#45;319&#45;50257&#45;1_12&#45;1&#45;&gt;10.1038/nphys3509 -->
<g id="edge8" class="edge">
<title>10.1007/978&#45;3&#45;319&#45;50257&#45;1_12&#45;1&#45;&gt;10.1038/nphys3509</title>
<g id="a_edge8"><a xlink:title="12&#45;1_CR37">
<path fill="none" stroke="#00ffff" d="M640.4978,-240.8626C678.3246,-320.7977 782.1206,-533.3238 891.178,-697.0091 941.1019,-771.9403 1008.7318,-852.1175 1049.5958,-898.6735"/>
<polygon fill="#00ffff" stroke="#00ffff" points="1056.4105,-906.4084 1046.4234,-901.88 1053.1052,-902.6568 1049.7998,-898.9051 1049.7998,-898.9051 1049.7998,-898.9051 1053.1052,-902.6568 1053.1763,-895.9303 1056.4105,-906.4084 1056.4105,-906.4084"/>
</a>
</g>
</g>
<!-- 10.1109/proc.1977.10747 -->
<g id="node21" class="node">
<title>10.1109/proc.1977.10747</title>
<polygon fill="#c1b2ff" stroke="#c1b2ff" points="795.7381,-116.6409 476.7381,-116.6409 476.7381,-52.6409 795.7381,-52.6409 795.7381,-116.6409"/>
<text text-anchor="start" x="511.2381" y="-102.4409" font-family="Times,serif" font-size="14.00" fill="#000000">(1977) The Cepstrum: a Guide To Processing</text>
<text text-anchor="start" x="484.7381" y="-88.4409" font-family="Times,serif" font-weight="bold" font-size="14.00" fill="#000000">D.G. Childers and D.P. Skinner and R.C. Kemerait</text>
<text text-anchor="start" x="568.2381" y="-74.4409" font-family="Times,serif" font-style="italic" font-size="14.00" fill="#000000">Proceedings of the IEEE</text>
<text text-anchor="start" x="523.7381" y="-60.4409" font-family="Times,serif" text-decoration="underline" font-size="14.00" fill="#000000">https://doi.org/10.1109/proc.1977.10747</text>
<text text-anchor="start" x="744.7381" y="-60.4409" font-family="Times,serif" font-size="14.00" fill="#000000"> </text>
</g>
<!-- 10.1007/978&#45;3&#45;319&#45;50257&#45;1_10&#45;1 -->
<g id="node22" class="node">
<title>10.1007/978&#45;3&#45;319&#45;50257&#45;1_10&#45;1</title>
<polygon fill="#c1b2ff" stroke="#c1b2ff" points="966.2381,-1176.6409 530.2381,-1176.6409 530.2381,-1112.6409 966.2381,-1112.6409 966.2381,-1176.6409"/>
<text text-anchor="start" x="538.2381" y="-1162.4409" font-family="Times,serif" font-size="14.00" fill="#000000">(2018) Thermal Transport by First&#45;Principles Anharmonic Lattice Dynamics</text>
<text text-anchor="start" x="638.2381" y="-1148.4409" font-family="Times,serif" font-weight="bold" font-size="14.00" fill="#000000">Lucas Lindsay and Carlos A. Polanco</text>
<text text-anchor="start" x="613.2381" y="-1120.4409" font-family="Times,serif" text-decoration="underline" font-size="14.00" fill="#000000">https://doi.org/10.1007/978&#45;3&#45;319&#45;50257&#45;1_10&#45;1</text>
<text text-anchor="start" x="879.2381" y="-1120.4409" font-family="Times,serif" font-size="14.00" fill="#000000"> </text>
</g>
<!-- 10.1093/mind/lix.236.433 -->
<g id="node23" class="node">
<title>10.1093/mind/lix.236.433</title>
<polygon fill="#c1b2ff" stroke="#c1b2ff" points="2294.7381,-1388.6409 2013.7381,-1388.6409 2013.7381,-1324.6409 2294.7381,-1324.6409 2294.7381,-1388.6409"/>
<text text-anchor="start" x="2021.7381" y="-1374.4409" font-family="Times,serif" font-size="14.00" fill="#000000">(1950) I.&#45;computing Machinery and Intelligence</text>
<text text-anchor="start" x="2107.2381" y="-1360.4409" font-family="Times,serif" font-weight="bold" font-size="14.00" fill="#000000">A. M. TURING</text>
<text text-anchor="start" x="2139.2381" y="-1346.4409" font-family="Times,serif" font-style="italic" font-size="14.00" fill="#000000">Mind</text>
<text text-anchor="start" x="2040.7381" y="-1332.4409" font-family="Times,serif" text-decoration="underline" font-size="14.00" fill="#000000">https://doi.org/10.1093/mind/lix.236.433</text>
<text text-anchor="start" x="2263.7381" y="-1332.4409" font-family="Times,serif" font-size="14.00" fill="#000000"> </text>
</g>
<!-- 10.1103/physrevlett.104.208501 -->
<g id="node24" class="node">
<title>10.1103/physrevlett.104.208501</title>
<polygon fill="#c1b2ff" stroke="#c1b2ff" points="2408.1554,-388.6232 2001.1554,-388.6232 2001.1554,-324.6232 2408.1554,-324.6232 2408.1554,-388.6232"/>
<text text-anchor="start" x="2009.1554" y="-374.4232" font-family="Times,serif" font-size="14.00" fill="#000000">(2010) Thermal Conductivity of Periclase (MgO) From First Principles</text>
<text text-anchor="start" x="2030.6554" y="-360.4232" font-family="Times,serif" font-weight="bold" font-size="14.00" fill="#000000">Stephen Stackhouse and Lars Stixrude and Bijaya B. Karki</text>
<text text-anchor="start" x="2139.1554" y="-346.4232" font-family="Times,serif" font-style="italic" font-size="14.00" fill="#000000">Physical Review Letters</text>
<text text-anchor="start" x="2074.1554" y="-332.4232" font-family="Times,serif" text-decoration="underline" font-size="14.00" fill="#000000">https://doi.org/10.1103/physrevlett.104.208501</text>
<text text-anchor="start" x="2331.1554" y="-332.4232" font-family="Times,serif" font-size="14.00" fill="#000000"> </text>
</g>
<!-- 10.1103/physrevlett.104.208501&#45;&gt;10.1063/1.473271 -->
<g id="edge14" class="edge">
<title>10.1103/physrevlett.104.208501&#45;&gt;10.1063/1.473271</title>
<g id="a_edge14"><a xlink:title="PhysRevLett.104.208501Cc12R1">
<path fill="none" stroke="#00ffff" d="M2171.1925,-388.7621C2095.9112,-458.8516 1904.5078,-624.9283 1709.578,-697.0091 1697.3961,-701.5138 1684.8195,-705.5212 1672.0006,-709.0832"/>
<polygon fill="#00ffff" stroke="#00ffff" points="1662.1533,-711.7211 1670.6483,-704.7867 1666.983,-710.4273 1671.8128,-709.1335 1671.8128,-709.1335 1671.8128,-709.1335 1666.983,-710.4273 1672.9772,-713.4802 1662.1533,-711.7211 1662.1533,-711.7211"/>
</a>
</g>
</g>
<!-- 10.1103/physrevb.99.024103 -->
<g id="node25" class="node">
<title>10.1103/physrevb.99.024103</title>
<polygon fill="#c1b2ff" stroke="#c1b2ff" points="2351.7381,-1229.6409 1854.7381,-1229.6409 1854.7381,-1165.6409 2351.7381,-1165.6409 2351.7381,-1229.6409"/>
<text text-anchor="start" x="1876.2381" y="-1215.4409" font-family="Times,serif" font-size="14.00" fill="#000000">(2019) Low&#45;Temperature Thermal Rectification By Tailoring Isotope Distributions</text>
<text text-anchor="start" x="1862.7381" y="-1201.4409" font-family="Times,serif" font-weight="bold" font-size="14.00" fill="#000000">Miquel Royo and Pol Torres and Miquel L{\&#39;o}pez&#45;Su{\&#39;a}rez and Riccardo Rurali</text>
<text text-anchor="start" x="2052.2381" y="-1187.4409" font-family="Times,serif" font-style="italic" font-size="14.00" fill="#000000">Physical Review B</text>
<text text-anchor="start" x="1981.2381" y="-1173.4409" font-family="Times,serif" text-decoration="underline" font-size="14.00" fill="#000000">https://doi.org/10.1103/physrevb.99.024103</text>
<text text-anchor="start" x="2221.2381" y="-1173.4409" font-family="Times,serif" font-size="14.00" fill="#000000"> </text>
</g>
<!-- 10.1103/physrevb.27.6083 -->
<g id="node26" class="node">
<title>10.1103/physrevb.27.6083</title>
<polygon fill="#c1b2ff" stroke="#c1b2ff" points="829.2381,-699.6409 583.2381,-699.6409 583.2381,-635.6409 829.2381,-635.6409 829.2381,-699.6409"/>
<text text-anchor="start" x="593.2381" y="-685.4409" font-family="Times,serif" font-size="14.00" fill="#000000">(1983) Quantization of Particle Transport</text>
<text text-anchor="start" x="664.7381" y="-671.4409" font-family="Times,serif" font-weight="bold" font-size="14.00" fill="#000000">D. J. Thouless</text>
<text text-anchor="start" x="655.2381" y="-657.4409" font-family="Times,serif" font-style="italic" font-size="14.00" fill="#000000">Physical Review B</text>
<text text-anchor="start" x="591.2381" y="-643.4409" font-family="Times,serif" text-decoration="underline" font-size="14.00" fill="#000000">https://doi.org/10.1103/physrevb.27.6083</text>
<text text-anchor="start" x="817.2381" y="-643.4409" font-family="Times,serif" font-size="14.00" fill="#000000"> </text>
</g>
<!-- 10.1103/physrevlett.49.405 -->
<g id="node27" class="node">
<title>10.1103/physrevlett.49.405</title>
<polygon fill="#c1b2ff" stroke="#c1b2ff" points="1871.2381,-63.6409 1431.2381,-63.6409 1431.2381,.3591 1871.2381,.3591 1871.2381,-63.6409"/>
<text text-anchor="start" x="1439.2381" y="-49.4409" font-family="Times,serif" font-size="14.00" fill="#000000">(1982) Quantized Hall Conductance in a Two&#45;Dimensional Periodic Potential</text>
<text text-anchor="start" x="1441.2381" y="-35.4409" font-family="Times,serif" font-weight="bold" font-size="14.00" fill="#000000">D. J. Thouless and M. Kohmoto and M. P. Nightingale and M. den Nijs</text>
<text text-anchor="start" x="1585.7381" y="-21.4409" font-family="Times,serif" font-style="italic" font-size="14.00" fill="#000000">Physical Review Letters</text>
<text text-anchor="start" x="1534.2381" y="-7.4409" font-family="Times,serif" text-decoration="underline" font-size="14.00" fill="#000000">https://doi.org/10.1103/physrevlett.49.405</text>
<text text-anchor="start" x="1764.2381" y="-7.4409" font-family="Times,serif" font-size="14.00" fill="#000000"> </text>
</g>
<!-- 10.1103/revmodphys.64.51 -->
<g id="node28" class="node">
<title>10.1103/revmodphys.64.51</title>
<polygon fill="#c1b2ff" stroke="#c1b2ff" points="1411.2381,-1600.6409 1113.2381,-1600.6409 1113.2381,-1536.6409 1411.2381,-1536.6409 1411.2381,-1600.6409"/>
<text text-anchor="start" x="1121.2381" y="-1586.4409" font-family="Times,serif" font-size="14.00" fill="#000000">(1992) The Geometric Phase in Molecular Systems</text>
<text text-anchor="start" x="1217.2381" y="-1572.4409" font-family="Times,serif" font-weight="bold" font-size="14.00" fill="#000000">C. Alden Mead</text>
<text text-anchor="start" x="1186.7381" y="-1558.4409" font-family="Times,serif" font-style="italic" font-size="14.00" fill="#000000">Reviews of Modern Physics</text>
<text text-anchor="start" x="1144.7381" y="-1544.4409" font-family="Times,serif" text-decoration="underline" font-size="14.00" fill="#000000">https://doi.org/10.1103/revmodphys.64.51</text>
<text text-anchor="start" x="1375.7381" y="-1544.4409" font-family="Times,serif" font-size="14.00" fill="#000000"> </text>
</g>
<!-- 10.1103/physrevlett.48.1425 -->
<g id="node29" class="node">
<title>10.1103/physrevlett.48.1425</title>
<polygon fill="#c1b2ff" stroke="#c1b2ff" points="1048.2381,-1600.6409 742.2381,-1600.6409 742.2381,-1536.6409 1048.2381,-1536.6409 1048.2381,-1600.6409"/>
<text text-anchor="start" x="750.2381" y="-1586.4409" font-family="Times,serif" font-size="14.00" fill="#000000">(1982) Efficacious Form for Model Pseudopotentials</text>
<text text-anchor="start" x="778.7381" y="-1572.4409" font-family="Times,serif" font-weight="bold" font-size="14.00" fill="#000000">Leonard Kleinman and D. M. Bylander</text>
<text text-anchor="start" x="829.7381" y="-1558.4409" font-family="Times,serif" font-style="italic" font-size="14.00" fill="#000000">Physical Review Letters</text>
<text text-anchor="start" x="774.7381" y="-1544.4409" font-family="Times,serif" text-decoration="underline" font-size="14.00" fill="#000000">https://doi.org/10.1103/physrevlett.48.1425</text>
<text text-anchor="start" x="1011.7381" y="-1544.4409" font-family="Times,serif" font-size="14.00" fill="#000000"> </text>
</g>
<!-- 10.1214/aos/1176346079 -->
<g id="node30" class="node">
<title>10.1214/aos/1176346079</title>
<polygon fill="#c1b2ff" stroke="#c1b2ff" points="2421.7381,-63.6409 1960.7381,-63.6409 1960.7381,.3591 2421.7381,.3591 2421.7381,-63.6409"/>
<text text-anchor="start" x="1968.7381" y="-49.4409" font-family="Times,serif" font-size="14.00" fill="#000000">(1983) Negative Association of Random Variables With &#160;&#160;&#160;&#160;&#160;&#160;&#160;&#160;&#160;&#160;&#160;&#160;&#160;&#160;&#160;&#160;&#160;Applications</text>
<text text-anchor="start" x="2078.7381" y="-35.4409" font-family="Times,serif" font-weight="bold" font-size="14.00" fill="#000000">Kumar Joag&#45;Dev and Frank Proschan</text>
<text text-anchor="start" x="2126.7381" y="-21.4409" font-family="Times,serif" font-style="italic" font-size="14.00" fill="#000000">The Annals of Statistics</text>
<text text-anchor="start" x="2080.2381" y="-7.4409" font-family="Times,serif" text-decoration="underline" font-size="14.00" fill="#000000">https://doi.org/10.1214/aos/1176346079</text>
<text text-anchor="start" x="2298.2381" y="-7.4409" font-family="Times,serif" font-size="14.00" fill="#000000"> </text>
</g>
</g>
</svg>
