<?xml version="1.0" encoding="UTF-8" standalone="no"?>
<!DOCTYPE svg PUBLIC "-//W3C//DTD SVG 1.1//EN"
 "http://www.w3.org/Graphics/SVG/1.1/DTD/svg11.dtd">
<!-- Generated by graphviz version 2.40.1 (20161225.0304)
 -->
<!-- Title: G Pages: 1 -->
<svg width="290pt" height="147pt"
 viewBox="0.00 0.00 289.50 147.00" xmlns="http://www.w3.org/2000/svg" xmlns:xlink="http://www.w3.org/1999/xlink">
<g id="graph0" class="graph" transform="scale(1 1) rotate(0) translate(4 143)">
<title>G</title>
<polygon fill="#ffffff" fill-opacity="0.003922" stroke="transparent" points="-4,4 -4,-143 285.5,-143 285.5,4 -4,4"/>
<!-- king -->
<g id="node1" class="node">
<title>king</title>
<polygon fill="#c1b2ff" stroke="#c1b2ff" points="126,-139 34,-139 34,-86 126,-86 126,-139"/>
<text text-anchor="middle" x="80" y="-123.8" font-family="Times,serif" font-size="14.00" fill="#000000">Publication</text>
<text text-anchor="middle" x="80" y="-108.8" font-family="Times,serif" font-size="14.00" fill="#000000">A.Writer</text>
<text text-anchor="middle" x="80" y="-93.8" font-family="Times,serif" font-size="14.00" fill="#000000">Some&#45;Journal</text>
</g>
<!-- lord -->
<g id="node2" class="node">
<title>lord</title>
<polygon fill="#c1b2ff" stroke="#c1b2ff" points="160,-50 0,-50 0,0 160,0 160,-50"/>
<text text-anchor="start" x="61" y="-35.8" font-family="Times,serif" font-size="14.00" fill="#000000">Article</text>
<text text-anchor="start" x="8" y="-21.8" font-family="Times,serif" font-weight="bold" font-size="14.00" fill="#000000">B. Author, C. Composer</text>
<text text-anchor="start" x="14.5" y="-7.8" font-family="Times,serif" font-style="italic" font-size="14.00" fill="#000000">Journal of Smth Special</text>
</g>
<!-- king&#45;&gt;lord -->
<g id="edge1" class="edge">
<title>king&#45;&gt;lord</title>
<g id="a_edge1"><a xlink:title="[31]">
<path fill="none" stroke="#00ffff" d="M80,-85.7717C80,-77.6966 80,-68.705 80,-60.1672"/>
<polygon fill="#00ffff" stroke="#00ffff" points="83.5001,-60.0703 80,-50.0703 76.5001,-60.0704 83.5001,-60.0703"/>
</a>
</g>
</g>
<!-- 1 -->
<g id="node3" class="node">
<title>1</title>
<g id="a_node3"><a xlink:href="http://www.google.com" xlink:title="Book&lt;br/&gt;&lt;b&gt;D. Novellist&lt;/b&gt;, &lt;i&gt;OReally&lt;/i&gt;&lt;br/&gt;&lt;u&gt;doi.org/go/read/me&lt;/u&gt;">
<polygon fill="#c1b2ff" stroke="#c1b2ff" points="281.5,-137.5 144.5,-137.5 144.5,-87.5 281.5,-87.5 281.5,-137.5"/>
<text text-anchor="start" x="198" y="-123.3" font-family="Times,serif" font-size="14.00" fill="#000000">Book</text>
<text text-anchor="start" x="152.5" y="-109.3" font-family="Times,serif" font-weight="bold" font-size="14.00" fill="#000000">D. Novellist</text>
<text text-anchor="start" x="220.5" y="-109.3" font-family="Times,serif" font-size="14.00" fill="#000000">, </text>
<text text-anchor="start" x="228.5" y="-109.3" font-family="Times,serif" font-style="italic" font-size="14.00" fill="#000000">OReally</text>
<text text-anchor="start" x="160.5" y="-95.3" font-family="Times,serif" text-decoration="underline" font-size="14.00" fill="#000000">doi.org/go/read/me</text>
</a>
</g>
</g>
</g>
</svg>
